{
    "asset" : {
        "generator" : "Khronos glTF Blender I/O v3.2.43",
        "version" : "2.0"
    },
    "scene" : 0,
    "scenes" : [
        {
            "name" : "Scene",
            "nodes" : [
                0,
                1,
                2,
                3,
                4,
                5,
                6,
                7,
                8,
                9,
                10
            ]
        }
    ],
    "nodes" : [
        {
            "mesh" : 0,
            "name" : "ShadowCatcher",
            "rotation" : [
                0,
                0.17350006103515625,
                0,
                0.9848338961601257
            ],
            "scale" : [
                2,
                2,
                2
            ]
        },
        {
            "mesh" : 1,
            "name" : "Nikita"
        },
        {
            "mesh" : 2,
            "name" : "Backpack"
        },
        {
            "mesh" : 3,
            "name" : "Holster"
        },
        {
            "mesh" : 4,
            "name" : "Shemag"
        },
        {
            "mesh" : 5,
            "name" : "Chest_rig"
        },
        {
            "mesh" : 6,
            "name" : "Vest"
        },
        {
            "mesh" : 7,
            "name" : "Knee_pads"
        },
        {
            "mesh" : 8,
            "name" : "Helmet"
        },
        {
            "mesh" : 9,
            "name" : "Goggles"
        },
        {
            "mesh" : 10,
            "name" : "Flag"
        }
    ],
    "materials" : [
        {
            "alphaMode" : "BLEND",
            "doubleSided" : true,
            "name" : "Ground",
            "pbrMetallicRoughness" : {}
        },
        {
            "doubleSided" : true,
            "name" : "NikitaMat",
            "pbrMetallicRoughness" : {}
        }
    ],
    "meshes" : [
        {
            "name" : "Plane",
            "primitives" : [
                {
                    "attributes" : {
                        "POSITION" : 0,
                        "NORMAL" : 1,
                        "TEXCOORD_0" : 2
                    },
                    "indices" : 3,
                    "material" : 0
                }
            ]
        },
        {
            "name" : "Nikita",
            "primitives" : [
                {
                    "attributes" : {
                        "POSITION" : 4,
                        "NORMAL" : 5,
                        "TEXCOORD_0" : 6
                    },
                    "indices" : 7,
                    "material" : 1
                }
            ]
        },
        {
            "name" : "Backpack",
            "primitives" : [
                {
                    "attributes" : {
                        "POSITION" : 8,
                        "NORMAL" : 9,
                        "TEXCOORD_0" : 10
                    },
                    "indices" : 11,
                    "material" : 1
                }
            ]
        },
        {
            "name" : "Holster",
            "primitives" : [
                {
                    "attributes" : {
                        "POSITION" : 12,
                        "NORMAL" : 13,
                        "TEXCOORD_0" : 14
                    },
                    "indices" : 15,
                    "material" : 1
                }
            ]
        },
        {
            "name" : "Shemag",
            "primitives" : [
                {
                    "attributes" : {
                        "POSITION" : 16,
                        "NORMAL" : 17,
                        "TEXCOORD_0" : 18
                    },
                    "indices" : 19,
                    "material" : 1
                }
            ]
        },
        {
            "name" : "Chest_rig",
            "primitives" : [
                {
                    "attributes" : {
                        "POSITION" : 20,
                        "NORMAL" : 21,
                        "TEXCOORD_0" : 22
                    },
                    "indices" : 23,
                    "material" : 1
                }
            ]
        },
        {
            "name" : "Vest",
            "primitives" : [
                {
                    "attributes" : {
                        "POSITION" : 24,
                        "NORMAL" : 25,
                        "TEXCOORD_0" : 26
                    },
                    "indices" : 27,
                    "material" : 1
                }
            ]
        },
        {
            "name" : "Knee_pads",
            "primitives" : [
                {
                    "attributes" : {
                        "POSITION" : 28,
                        "NORMAL" : 29,
                        "TEXCOORD_0" : 30
                    },
                    "indices" : 31,
                    "material" : 1
                }
            ]
        },
        {
            "name" : "Helmet",
            "primitives" : [
                {
                    "attributes" : {
                        "POSITION" : 32,
                        "NORMAL" : 33,
                        "TEXCOORD_0" : 34
                    },
                    "indices" : 35,
                    "material" : 1
                }
            ]
        },
        {
            "name" : "Goggles",
            "primitives" : [
                {
                    "attributes" : {
                        "POSITION" : 36,
                        "NORMAL" : 37,
                        "TEXCOORD_0" : 38
                    },
                    "indices" : 39,
                    "material" : 1
                }
            ]
        },
        {
            "name" : "Flag",
            "primitives" : [
                {
                    "attributes" : {
                        "POSITION" : 40,
                        "NORMAL" : 41,
                        "TEXCOORD_0" : 42
                    },
                    "indices" : 43,
                    "material" : 1
                }
            ]
        }
    ],
    "accessors" : [
        {
            "bufferView" : 0,
            "componentType" : 5126,
            "count" : 4,
            "max" : [
                1,
                0,
                1
            ],
            "min" : [
                -1,
                0,
                -1
            ],
            "type" : "VEC3"
        },
        {
            "bufferView" : 1,
            "componentType" : 5126,
            "count" : 4,
            "type" : "VEC3"
        },
        {
            "bufferView" : 2,
            "componentType" : 5126,
            "count" : 4,
            "type" : "VEC2"
        },
        {
            "bufferView" : 3,
            "componentType" : 5123,
            "count" : 6,
            "type" : "SCALAR"
        },
        {
            "bufferView" : 4,
            "componentType" : 5126,
            "count" : 2350,
            "max" : [
                0.6515886783599854,
                1.8425697088241577,
                0.252989798784256
            ],
            "min" : [
                -0.6515886783599854,
                -8.873558545019478e-05,
                -0.09349490702152252
            ],
            "type" : "VEC3"
        },
        {
            "bufferView" : 5,
            "componentType" : 5126,
            "count" : 2350,
            "type" : "VEC3"
        },
        {
            "bufferView" : 6,
            "componentType" : 5126,
            "count" : 2350,
            "type" : "VEC2"
        },
        {
            "bufferView" : 7,
            "componentType" : 5123,
            "count" : 3396,
            "type" : "SCALAR"
        },
        {
            "bufferView" : 8,
            "componentType" : 5126,
            "count" : 895,
            "max" : [
                0.17506827414035797,
                1.5892847776412964,
                0.2417868971824646
            ],
            "min" : [
                -0.20736058056354523,
                0.9846764206886292,
                -0.21786415576934814
            ],
            "type" : "VEC3"
        },
        {
            "bufferView" : 9,
            "componentType" : 5126,
            "count" : 895,
            "type" : "VEC3"
        },
        {
            "bufferView" : 10,
            "componentType" : 5126,
            "count" : 895,
            "type" : "VEC2"
        },
        {
            "bufferView" : 11,
            "componentType" : 5123,
            "count" : 1335,
            "type" : "SCALAR"
        },
        {
            "bufferView" : 12,
            "componentType" : 5126,
            "count" : 546,
            "max" : [
                -0.012963099405169487,
                0.8848085403442383,
                0.19340619444847107
            ],
            "min" : [
                -0.26372191309928894,
                0.6725053191184998,
                -0.0462307445704937
            ],
            "type" : "VEC3"
        },
        {
            "bufferView" : 13,
            "componentType" : 5126,
            "count" : 546,
            "type" : "VEC3"
        },
        {
            "bufferView" : 14,
            "componentType" : 5126,
            "count" : 546,
            "type" : "VEC2"
        },
        {
            "bufferView" : 15,
            "componentType" : 5123,
            "count" : 804,
            "type" : "SCALAR"
        },
        {
            "bufferView" : 16,
            "componentType" : 5126,
            "count" : 520,
            "max" : [
                0.1321520060300827,
                1.6746639013290405,
                0.20406723022460938
            ],
            "min" : [
                -0.14204351603984833,
                1.4098979234695435,
                -0.0739472433924675
            ],
            "type" : "VEC3"
        },
        {
            "bufferView" : 17,
            "componentType" : 5126,
            "count" : 520,
            "type" : "VEC3"
        },
        {
            "bufferView" : 18,
            "componentType" : 5126,
            "count" : 520,
            "type" : "VEC2"
        },
        {
            "bufferView" : 19,
            "componentType" : 5123,
            "count" : 738,
            "type" : "SCALAR"
        },
        {
            "bufferView" : 20,
            "componentType" : 5126,
            "count" : 1260,
            "max" : [
                0.20068152248859406,
                1.5897390842437744,
                0.2575560510158539
            ],
            "min" : [
                -0.20068152248859406,
                1.1201688051223755,
                -0.10807427763938904
            ],
            "type" : "VEC3"
        },
        {
            "bufferView" : 21,
            "componentType" : 5126,
            "count" : 1260,
            "type" : "VEC3"
        },
        {
            "bufferView" : 22,
            "componentType" : 5126,
            "count" : 1260,
            "type" : "VEC2"
        },
        {
            "bufferView" : 23,
            "componentType" : 5123,
            "count" : 1860,
            "type" : "SCALAR"
        },
        {
            "bufferView" : 24,
            "componentType" : 5126,
            "count" : 392,
            "max" : [
                0.19848494231700897,
                1.5699788331985474,
                0.21463543176651
            ],
            "min" : [
                -0.19848494231700897,
                1.1122149229049683,
                -0.0924689918756485
            ],
            "type" : "VEC3"
        },
        {
            "bufferView" : 25,
            "componentType" : 5126,
            "count" : 392,
            "type" : "VEC3"
        },
        {
            "bufferView" : 26,
            "componentType" : 5126,
            "count" : 392,
            "type" : "VEC2"
        },
        {
            "bufferView" : 27,
            "componentType" : 5123,
            "count" : 588,
            "type" : "SCALAR"
        },
        {
            "bufferView" : 28,
            "componentType" : 5126,
            "count" : 463,
            "max" : [
                0.24953217804431915,
                0.6104384064674377,
                0.20742568373680115
            ],
            "min" : [
                -0.22539865970611572,
                0.21337048709392548,
                -0.05911081284284592
            ],
            "type" : "VEC3"
        },
        {
            "bufferView" : 29,
            "componentType" : 5126,
            "count" : 463,
            "type" : "VEC3"
        },
        {
            "bufferView" : 30,
            "componentType" : 5126,
            "count" : 463,
            "type" : "VEC2"
        },
        {
            "bufferView" : 31,
            "componentType" : 5123,
            "count" : 651,
            "type" : "SCALAR"
        },
        {
            "bufferView" : 32,
            "componentType" : 5126,
            "count" : 464,
            "max" : [
                0.12080000340938568,
                1.8597710132598877,
                0.24607190489768982
            ],
            "min" : [
                -0.12080000340938568,
                1.5715970993041992,
                -0.026561027392745018
            ],
            "type" : "VEC3"
        },
        {
            "bufferView" : 33,
            "componentType" : 5126,
            "count" : 464,
            "type" : "VEC3"
        },
        {
            "bufferView" : 34,
            "componentType" : 5126,
            "count" : 464,
            "type" : "VEC2"
        },
        {
            "bufferView" : 35,
            "componentType" : 5123,
            "count" : 636,
            "type" : "SCALAR"
        },
        {
            "bufferView" : 36,
            "componentType" : 5126,
            "count" : 648,
            "max" : [
                0.12487617135047913,
                1.7464568614959717,
                0.23620757460594177
            ],
            "min" : [
                -0.12487617135047913,
                1.6673568487167358,
                -0.027841193601489067
            ],
            "type" : "VEC3"
        },
        {
            "bufferView" : 37,
            "componentType" : 5126,
            "count" : 648,
            "type" : "VEC3"
        },
        {
            "bufferView" : 38,
            "componentType" : 5126,
            "count" : 648,
            "type" : "VEC2"
        },
        {
            "bufferView" : 39,
            "componentType" : 5123,
            "count" : 936,
            "type" : "SCALAR"
        },
        {
            "bufferView" : 40,
            "componentType" : 5126,
            "count" : 8,
            "max" : [
                0.053319528698921204,
                1.4716876745224,
                0.20625926554203033
            ],
            "min" : [
                -0.053319528698921204,
                1.4170676469802856,
                0.17025743424892426
            ],
            "type" : "VEC3"
        },
        {
            "bufferView" : 41,
            "componentType" : 5126,
            "count" : 8,
            "type" : "VEC3"
        },
        {
            "bufferView" : 42,
            "componentType" : 5126,
            "count" : 8,
            "type" : "VEC2"
        },
        {
            "bufferView" : 43,
            "componentType" : 5123,
            "count" : 12,
            "type" : "SCALAR"
        }
    ],
    "bufferViews" : [
        {
            "buffer" : 0,
            "byteLength" : 48,
            "byteOffset" : 0
        },
        {
            "buffer" : 0,
            "byteLength" : 48,
            "byteOffset" : 48
        },
        {
            "buffer" : 0,
            "byteLength" : 32,
            "byteOffset" : 96
        },
        {
            "buffer" : 0,
            "byteLength" : 12,
            "byteOffset" : 128
        },
        {
            "buffer" : 0,
            "byteLength" : 28200,
            "byteOffset" : 140
        },
        {
            "buffer" : 0,
            "byteLength" : 28200,
            "byteOffset" : 28340
        },
        {
            "buffer" : 0,
            "byteLength" : 18800,
            "byteOffset" : 56540
        },
        {
            "buffer" : 0,
            "byteLength" : 6792,
            "byteOffset" : 75340
        },
        {
            "buffer" : 0,
            "byteLength" : 10740,
            "byteOffset" : 82132
        },
        {
            "buffer" : 0,
            "byteLength" : 10740,
            "byteOffset" : 92872
        },
        {
            "buffer" : 0,
            "byteLength" : 7160,
            "byteOffset" : 103612
        },
        {
            "buffer" : 0,
            "byteLength" : 2670,
            "byteOffset" : 110772
        },
        {
            "buffer" : 0,
            "byteLength" : 6552,
            "byteOffset" : 113444
        },
        {
            "buffer" : 0,
            "byteLength" : 6552,
            "byteOffset" : 119996
        },
        {
            "buffer" : 0,
            "byteLength" : 4368,
            "byteOffset" : 126548
        },
        {
            "buffer" : 0,
            "byteLength" : 1608,
            "byteOffset" : 130916
        },
        {
            "buffer" : 0,
            "byteLength" : 6240,
            "byteOffset" : 132524
        },
        {
            "buffer" : 0,
            "byteLength" : 6240,
            "byteOffset" : 138764
        },
        {
            "buffer" : 0,
            "byteLength" : 4160,
            "byteOffset" : 145004
        },
        {
            "buffer" : 0,
            "byteLength" : 1476,
            "byteOffset" : 149164
        },
        {
            "buffer" : 0,
            "byteLength" : 15120,
            "byteOffset" : 150640
        },
        {
            "buffer" : 0,
            "byteLength" : 15120,
            "byteOffset" : 165760
        },
        {
            "buffer" : 0,
            "byteLength" : 10080,
            "byteOffset" : 180880
        },
        {
            "buffer" : 0,
            "byteLength" : 3720,
            "byteOffset" : 190960
        },
        {
            "buffer" : 0,
            "byteLength" : 4704,
            "byteOffset" : 194680
        },
        {
            "buffer" : 0,
            "byteLength" : 4704,
            "byteOffset" : 199384
        },
        {
            "buffer" : 0,
            "byteLength" : 3136,
            "byteOffset" : 204088
        },
        {
            "buffer" : 0,
            "byteLength" : 1176,
            "byteOffset" : 207224
        },
        {
            "buffer" : 0,
            "byteLength" : 5556,
            "byteOffset" : 208400
        },
        {
            "buffer" : 0,
            "byteLength" : 5556,
            "byteOffset" : 213956
        },
        {
            "buffer" : 0,
            "byteLength" : 3704,
            "byteOffset" : 219512
        },
        {
            "buffer" : 0,
            "byteLength" : 1302,
            "byteOffset" : 223216
        },
        {
            "buffer" : 0,
            "byteLength" : 5568,
            "byteOffset" : 224520
        },
        {
            "buffer" : 0,
            "byteLength" : 5568,
            "byteOffset" : 230088
        },
        {
            "buffer" : 0,
            "byteLength" : 3712,
            "byteOffset" : 235656
        },
        {
            "buffer" : 0,
            "byteLength" : 1272,
            "byteOffset" : 239368
        },
        {
            "buffer" : 0,
            "byteLength" : 7776,
            "byteOffset" : 240640
        },
        {
            "buffer" : 0,
            "byteLength" : 7776,
            "byteOffset" : 248416
        },
        {
            "buffer" : 0,
            "byteLength" : 5184,
            "byteOffset" : 256192
        },
        {
            "buffer" : 0,
            "byteLength" : 1872,
            "byteOffset" : 261376
        },
        {
            "buffer" : 0,
            "byteLength" : 96,
            "byteOffset" : 263248
        },
        {
            "buffer" : 0,
            "byteLength" : 96,
            "byteOffset" : 263344
        },
        {
            "buffer" : 0,
            "byteLength" : 64,
            "byteOffset" : 263440
        },
        {
            "buffer" : 0,
            "byteLength" : 24,
            "byteOffset" : 263504
        }
    ],
    "buffers" : [
        {
            "byteLength" : 263528,
            "uri" : "data:application/octet-stream;base64,"
        }
    ]
}
